<svg xmlns="http://www.w3.org/2000/svg" xmlns:xlink="http://www.w3.org/1999/xlink" width="180" zoomAndPan="magnify" viewBox="0 0 135 135.000003" height="120" preserveAspectRatio="xMidYMid meet" version="1.0"><defs><g/><clipPath id="id1"><path d="M 65.265625 58.59375 L 95.046875 58.59375 L 95.046875 80.929688 L 65.265625 80.929688 Z M 65.265625 58.59375 " clip-rule="nonzero"/></clipPath></defs><g clip-path="url(#id1)"><path fill="#f4f6ff" d="M 90.1875 80.84375 L 87.636719 75.972656 L 89.625 72.535156 L 93.921875 80.84375 Z M 65.265625 80.84375 C 66.6875 78.429688 71.875 69.632812 74.695312 65.074219 C 74.867188 64.789062 75.546875 64.289062 76.285156 64.289062 C 76.535156 64.289062 76.761719 64.351562 76.960938 64.476562 C 77.832031 65.019531 77.71875 66.109375 77.464844 66.570312 C 75.136719 70.804688 69.847656 79.429688 68.976562 80.847656 L 65.265625 80.847656 Z M 83.910156 75.597656 C 83.386719 75.597656 82.914062 75.324219 82.667969 74.890625 C 82.375 74.371094 82.4375 73.722656 82.839844 73.058594 L 82.847656 73.046875 C 85.175781 68.8125 90.46875 60.1875 91.335938 58.769531 L 95.046875 58.769531 C 93.625 61.1875 88.445312 69.972656 85.625 74.535156 C 85.152344 75.21875 84.542969 75.597656 83.910156 75.597656 Z M 77.675781 75.449219 C 77.152344 75.449219 76.652344 75.160156 76.375 74.695312 C 76.082031 74.207031 76.085938 73.617188 76.375 73.070312 C 77.953125 70.421875 79.722656 67.5625 81.015625 65.472656 L 81.261719 65.074219 C 81.4375 64.789062 82.117188 64.289062 82.851562 64.289062 C 83.105469 64.289062 83.332031 64.351562 83.53125 64.476562 C 84.402344 65.019531 84.289062 66.109375 84.035156 66.570312 C 83.472656 67.59375 82.28125 69.542969 81.125 71.433594 C 80.445312 72.542969 79.804688 73.59375 79.308594 74.429688 C 78.84375 75.085938 78.265625 75.449219 77.675781 75.449219 Z M 66.390625 58.769531 L 70.125 58.769531 L 72.675781 63.640625 L 70.691406 67.078125 Z M 66.390625 58.769531 " fill-opacity="1" fill-rule="nonzero"/></g><g fill="#ffbf00" fill-opacity="1"><g transform="translate(15.397281, 72.606752)"><g><path d="M 1.5625 0 L 1.5625 -14.484375 L 5.46875 -14.484375 L 5.46875 -3.15625 L 11.046875 -3.15625 L 11.046875 0 Z M 1.5625 0 "/></g></g></g><g fill="#ffbf00" fill-opacity="1"><g transform="translate(27.198309, 72.606752)"><g><path d="M 5.234375 0 L 1.359375 0 L 1.359375 -11.21875 L 5.234375 -11.21875 Z M 1.25 -14.015625 C 1.25 -14.597656 1.410156 -15.03125 1.734375 -15.3125 C 2.066406 -15.59375 2.59375 -15.734375 3.3125 -15.734375 C 4.03125 -15.734375 4.550781 -15.585938 4.875 -15.296875 C 5.207031 -15.003906 5.375 -14.578125 5.375 -14.015625 C 5.375 -12.878906 4.6875 -12.3125 3.3125 -12.3125 C 1.9375 -12.3125 1.25 -12.878906 1.25 -14.015625 Z M 1.25 -14.015625 "/></g></g></g><g fill="#ffbf00" fill-opacity="1"><g transform="translate(33.791836, 72.606752)"><g><path d="M 8.421875 0 L 8.421875 -6.125 C 8.421875 -6.863281 8.3125 -7.421875 8.09375 -7.796875 C 7.882812 -8.179688 7.539062 -8.375 7.0625 -8.375 C 6.40625 -8.375 5.929688 -8.113281 5.640625 -7.59375 C 5.347656 -7.070312 5.203125 -6.175781 5.203125 -4.90625 L 5.203125 0 L 1.34375 0 L 1.34375 -11.21875 L 4.265625 -11.21875 L 4.75 -9.828125 L 4.96875 -9.828125 C 5.300781 -10.359375 5.757812 -10.753906 6.34375 -11.015625 C 6.925781 -11.285156 7.597656 -11.421875 8.359375 -11.421875 C 9.597656 -11.421875 10.5625 -11.0625 11.25 -10.34375 C 11.945312 -9.625 12.296875 -8.609375 12.296875 -7.296875 L 12.296875 0 Z M 8.421875 0 "/></g></g></g><g fill="#ffbf00" fill-opacity="1"><g transform="translate(47.374899, 72.606752)"><g><path d="M 5.09375 -6.3125 C 5.5625 -7.050781 5.957031 -7.628906 6.28125 -8.046875 L 8.796875 -11.21875 L 13.125 -11.21875 L 9.234375 -6.453125 L 13.375 0 L 8.9375 0 L 6.484375 -4.015625 L 5.234375 -3.0625 L 5.234375 0 L 1.34375 0 L 1.34375 -15.40625 L 5.234375 -15.40625 L 5.234375 -9.34375 C 5.234375 -8.3125 5.160156 -7.300781 5.015625 -6.3125 Z M 5.09375 -6.3125 "/></g></g></g><g fill="#f4f6ff" fill-opacity="1"><g transform="translate(95.836177, 73.304406)"><g><path d="M 4.34375 0 L 1.125 0 L 1.125 -9.3125 L 4.34375 -9.3125 Z M 1.046875 -11.625 C 1.046875 -12.101562 1.175781 -12.460938 1.4375 -12.703125 C 1.707031 -12.941406 2.144531 -13.0625 2.75 -13.0625 C 3.34375 -13.0625 3.773438 -12.9375 4.046875 -12.6875 C 4.328125 -12.445312 4.46875 -12.09375 4.46875 -11.625 C 4.46875 -10.6875 3.894531 -10.21875 2.75 -10.21875 C 1.613281 -10.21875 1.046875 -10.6875 1.046875 -11.625 Z M 1.046875 -11.625 "/></g></g><g transform="translate(101.309539, 73.304406)"><g><path d="M 6.734375 -9.46875 C 7.015625 -9.46875 7.28125 -9.445312 7.53125 -9.40625 L 7.703125 -9.375 L 7.421875 -6.34375 C 7.160156 -6.40625 6.796875 -6.4375 6.328125 -6.4375 C 5.628906 -6.4375 5.117188 -6.273438 4.796875 -5.953125 C 4.484375 -5.640625 4.328125 -5.179688 4.328125 -4.578125 L 4.328125 0 L 1.109375 0 L 1.109375 -9.3125 L 3.5 -9.3125 L 4 -7.828125 L 4.15625 -7.828125 C 4.425781 -8.316406 4.800781 -8.710938 5.28125 -9.015625 C 5.757812 -9.316406 6.242188 -9.46875 6.734375 -9.46875 Z M 6.734375 -9.46875 "/></g></g><g transform="translate(109.20729, 73.304406)"><g><path d="M 5.609375 0.171875 C 4.054688 0.171875 2.847656 -0.238281 1.984375 -1.0625 C 1.128906 -1.894531 0.703125 -3.070312 0.703125 -4.59375 C 0.703125 -6.164062 1.097656 -7.367188 1.890625 -8.203125 C 2.691406 -9.046875 3.828125 -9.46875 5.296875 -9.46875 C 6.703125 -9.46875 7.785156 -9.101562 8.546875 -8.375 C 9.316406 -7.644531 9.703125 -6.59375 9.703125 -5.21875 L 9.703125 -3.78125 L 3.953125 -3.78125 C 3.972656 -3.257812 4.160156 -2.851562 4.515625 -2.5625 C 4.878906 -2.269531 5.367188 -2.125 5.984375 -2.125 C 6.554688 -2.125 7.078125 -2.175781 7.546875 -2.28125 C 8.023438 -2.382812 8.539062 -2.566406 9.09375 -2.828125 L 9.09375 -0.515625 C 8.582031 -0.253906 8.054688 -0.078125 7.515625 0.015625 C 6.984375 0.117188 6.347656 0.171875 5.609375 0.171875 Z M 5.421875 -7.28125 C 5.035156 -7.28125 4.710938 -7.160156 4.453125 -6.921875 C 4.203125 -6.691406 4.054688 -6.320312 4.015625 -5.8125 L 6.78125 -5.8125 C 6.769531 -6.257812 6.640625 -6.613281 6.390625 -6.875 C 6.148438 -7.144531 5.828125 -7.28125 5.421875 -7.28125 Z M 5.421875 -7.28125 "/></g></g></g></svg>